# xmcd CD database file
#
# Track frame offsets:
#	150
#	19897
#	34425
#	52947
#	63842
#	81110
#	93397
#	106537
#	119300
#	134877
#	149130
#	161617
#	176590
#	190245
#	203470
#
# Disc length: 2905 seconds
#
# Revision: 0
# Processed by: cddbd v1.5.1PL2 Copyright (c) Steve Scherf et al.
# Submitted via: CDex 1.51
#
DISCID=d00b570f
DTITLE=Ondrej Havelka and Melody Makers - Nejlepsi kusy z repertoiru
DYEAR=2000
DGENRE=Jazz
TTITLE0=Beale Street Blues
TTITLE1=Dream OF You
TTITLE2=Jen pro ten dnesni den...
TTITLE3=Honba za pisnickou
TTITLE4=Sam ja chodivam rad
TTITLE5=They All Laughed
TTITLE6=Zapomen, ze uz se loucime
TTITLE7=I´m Putting All My Eggs In One Basket
TTITLE8=Beat Me, Daddy, Eight-To-The-Bar
TTITLE9=Isn´t This A Lovely Day?
TTITLE10=Jednou, jen jedenkrat
TTITLE11=Namesicnik
TTITLE12=Jingle Bells
TTITLE13=Me to tady nebavi
TTITLE14=Dekuji, bylo to krasne
EXTD=YEAR: 2000
EXTT0=
EXTT1=
EXTT2=
EXTT3=
EXTT4=
EXTT5=
EXTT6=
EXTT7=
EXTT8=
EXTT9=
EXTT10=
EXTT11=
EXTT12=
EXTT13=
EXTT14=
PLAYORDER=
